<?xml version="1.0" encoding="UTF-8" standalone="no"?>
<!-- Created with Inkscape (http://www.inkscape.org/) -->

<svg
   xmlns:dc="http://purl.org/dc/elements/1.1/"
   xmlns:cc="http://creativecommons.org/ns#"
   xmlns:rdf="http://www.w3.org/1999/02/22-rdf-syntax-ns#"
   xmlns:svg="http://www.w3.org/2000/svg"
   xmlns="http://www.w3.org/2000/svg"
   xmlns:xlink="http://www.w3.org/1999/xlink"
   xmlns:sodipodi="http://sodipodi.sourceforge.net/DTD/sodipodi-0.dtd"
   xmlns:inkscape="http://www.inkscape.org/namespaces/inkscape"
   width="108mm"
   height="108mm"
   viewBox="0 0 382.67716 382.67716"
   id="svg2"
   version="1.1"
   inkscape:version="0.91 r13725"
   sodipodi:docname="dessert.svg"
   inkscape:export-filename="/Users/bussonniermatthias/dev/dessert/assets/dessert.png"
   inkscape:export-xdpi="90"
   inkscape:export-ydpi="90">
  <defs
     id="defs4">
    <linearGradient
       inkscape:collect="always"
       id="linearGradient4206-7-3">
      <stop
         style="stop-color:#f69d9d;stop-opacity:1"
         offset="0"
         id="stop4348" />
      <stop
         style="stop-color:#c14a4a;stop-opacity:1"
         offset="1"
         id="stop4350" />
    </linearGradient>
    <linearGradient
       id="linearGradient4206-7"
       inkscape:collect="always">
      <stop
         id="stop4317"
         offset="0"
         style="stop-color:#e2e2e2;stop-opacity:1;" />
      <stop
         id="stop4319"
         offset="1"
         style="stop-color:#de9f9f;stop-opacity:1" />
    </linearGradient>
    <linearGradient
       inkscape:collect="always"
       id="linearGradient4206">
      <stop
         style="stop-color:#969696;stop-opacity:1"
         offset="0"
         id="stop4208" />
      <stop
         style="stop-color:#c75b5b;stop-opacity:1"
         offset="1"
         id="stop4210" />
    </linearGradient>
    <linearGradient
       id="linearGradient4182-6"
       inkscape:collect="always">
      <stop
         id="stop4200"
         offset="0"
         style="stop-color:#a24100;stop-opacity:1" />
      <stop
         id="stop4202"
         offset="1"
         style="stop-color:#7f3200;stop-opacity:1" />
    </linearGradient>
    <linearGradient
       inkscape:collect="always"
       id="linearGradient4182">
      <stop
         style="stop-color:#803300;stop-opacity:1;"
         offset="0"
         id="stop4168" />
      <stop
         style="stop-color:#b64800;stop-opacity:1"
         offset="1"
         id="stop4170" />
    </linearGradient>
    <linearGradient
       inkscape:collect="always"
       xlink:href="#linearGradient4182"
       id="linearGradient4174"
       x1="198.3213"
       y1="327.91629"
       x2="298.31671"
       y2="327.91629"
       gradientUnits="userSpaceOnUse"
       gradientTransform="matrix(1.0520633,0,0,1.1217984,-4.442333,-114.96479)" />
    <linearGradient
       inkscape:collect="always"
       xlink:href="#linearGradient4182-6"
       id="linearGradient4190"
       x1="438.69437"
       y1="321.52707"
       x2="477.45352"
       y2="321.52707"
       gradientUnits="userSpaceOnUse"
       gradientTransform="matrix(1.0520633,0,0,1.1217984,-4.442333,-114.96479)" />
    <linearGradient
       inkscape:collect="always"
       xlink:href="#linearGradient4206"
       id="linearGradient4212"
       x1="337.13776"
       y1="300.14014"
       x2="335.04337"
       y2="374.89142"
       gradientUnits="userSpaceOnUse"
       gradientTransform="matrix(1.0520633,0,0,1.1217984,-4.442333,-114.96479)" />
    <linearGradient
       inkscape:collect="always"
       xlink:href="#linearGradient4206-7"
       id="linearGradient4321"
       gradientUnits="userSpaceOnUse"
       x1="337.13776"
       y1="300.14014"
       x2="335.04337"
       y2="374.89142"
       gradientTransform="matrix(1.0520633,0,0,1.1217984,-4.442333,-114.96479)" />
    <linearGradient
       inkscape:collect="always"
       xlink:href="#linearGradient4206-7-3"
       id="linearGradient4323"
       gradientUnits="userSpaceOnUse"
       x1="337.13776"
       y1="300.14014"
       x2="335.04337"
       y2="374.89142"
       gradientTransform="matrix(1.0520633,0,0,1.1217984,-4.442333,-114.96479)" />
    <linearGradient
       inkscape:collect="always"
       xlink:href="#linearGradient4206-7"
       id="linearGradient4325"
       gradientUnits="userSpaceOnUse"
       x1="337.13776"
       y1="300.14014"
       x2="335.04337"
       y2="374.89142"
       gradientTransform="matrix(1.0520633,0,0,1.1217984,-4.442333,-114.96479)" />
    <filter
       inkscape:collect="always"
       style="color-interpolation-filters:sRGB"
       id="filter4460"
       x="-0.023347324"
       width="1.0466946"
       y="-0.05990769"
       height="1.1198153">
      <feGaussianBlur
         inkscape:collect="always"
         stdDeviation="1.94164"
         id="feGaussianBlur4462" />
    </filter>
    <filter
       inkscape:collect="always"
       style="color-interpolation-filters:sRGB"
       id="filter4555"
       x="-0.014947479"
       width="1.0298949"
       y="-0.038923111"
       height="1.0778462">
      <feGaussianBlur
         inkscape:collect="always"
         stdDeviation="2.1049393"
         id="feGaussianBlur4557" />
    </filter>
    <filter
       inkscape:collect="always"
       style="color-interpolation-filters:sRGB"
       id="filter4599"
       x="-0.045695998"
       width="1.091392"
       y="-0.033113044"
       height="1.0662261">
      <feGaussianBlur
         inkscape:collect="always"
         stdDeviation="1.7000001"
         id="feGaussianBlur4601" />
    </filter>
  </defs>
  <sodipodi:namedview
     id="base"
     pagecolor="#ffffff"
     bordercolor="#666666"
     borderopacity="1.0"
     inkscape:pageopacity="0.0"
     inkscape:pageshadow="2"
     inkscape:zoom="1.979899"
     inkscape:cx="192.45263"
     inkscape:cy="273.1483"
     inkscape:document-units="px"
     inkscape:current-layer="layer1"
     showgrid="false"
     showguides="true"
     inkscape:guide-bbox="true"
     inkscape:window-width="1680"
     inkscape:window-height="967"
     inkscape:window-x="46"
     inkscape:window-y="68"
     inkscape:window-maximized="0"
     fit-margin-top="0"
     fit-margin-left="0"
     fit-margin-right="0"
     fit-margin-bottom="0" />
  <metadata
     id="metadata7">
    <rdf:RDF>
      <cc:Work
         rdf:about="">
        <dc:format>image/svg+xml</dc:format>
        <dc:type
           rdf:resource="http://purl.org/dc/dcmitype/StillImage" />
        <dc:title />
      </cc:Work>
    </rdf:RDF>
  </metadata>
  <g
     inkscape:label="Layer 1"
     inkscape:groupmode="layer"
     id="layer1"
     transform="translate(-162.30486,-59.88262)">
    <path
       style="fill:#f2f2f2;fill-opacity:1;stroke:#a44d11;stroke-width:3.472;stroke-miterlimit:4;stroke-dasharray:none;stroke-opacity:1"
       sodipodi:nodetypes="cccccccccccccccccccccccccccccccccccccccsccccccccccccccccccccccccccccccccccccccscccccccccccccccccccccccccccccccccccccccscccccccccccccccccccccccccccccccccccccccsc"
       d="m 535.44305,297.52158 -15.52007,-3.96435 c -0.13078,-0.62379 -0.27904,-1.24614 -0.44152,-1.86557 l 13.33723,-5.13323 c 1.35633,-0.52178 1.96385,-1.29425 1.59652,-2.04194 -0.35675,-0.7506 -1.63183,-1.36856 -3.36609,-1.63528 l -17.04949,-2.63075 c -0.42737,-0.60923 -0.87595,-1.21408 -1.33514,-1.81602 l 10.63519,-6.09517 c 1.08436,-0.61942 1.30687,-1.42542 0.60045,-2.1323 -0.70641,-0.70395 -2.24996,-1.20823 -4.07604,-1.33213 l -17.97841,-1.20679 c -0.69936,-0.56258 -1.42697,-1.11642 -2.16167,-1.66589 l 7.55517,-6.84287 c 0.77354,-0.69666 0.6146,-1.50703 -0.41678,-2.13957 -1.02784,-0.63546 -2.76918,-1.00712 -4.62705,-0.97797 l -18.24685,0.26235 c -0.94308,-0.4868 -1.90381,-0.96923 -2.8822,-1.4429 l 4.19262,-7.33404 c 0.42385,-0.74477 -0.10947,-1.52452 -1.42347,-2.06524 -1.30333,-0.53927 -3.19654,-0.76226 -5.00145,-0.58736 l -17.77,1.72857 c -1.15147,-0.40227 -2.32059,-0.80016 -3.50386,-1.18931 l 0.63931,-7.52933 c 0.0707,-0.76226 -0.83005,-1.48663 -2.37005,-1.90929 -1.54352,-0.42559 -3.49677,-0.48972 -5.18158,-0.17345 l -16.57971,3.119 c -1.33868,-0.30315 -2.68086,-0.60339 -4.03719,-0.89343 l -2.93166,-7.42002 c -0.29668,-0.75206 -1.51879,-1.39044 -3.22833,-1.68193 -1.70601,-0.29295 -3.66281,-0.19821 -5.16396,0.24777 l -14.78185,4.38846 c -1.45523,-0.19092 -2.91751,-0.37456 -4.39394,-0.54946 l -6.37545,-7.0367 c -0.64637,-0.71709 -2.14398,-1.24323 -3.96301,-1.3919 -1.81551,-0.14721 -3.68399,0.10203 -4.94495,0.65878 l -12.44007,5.50782 c -1.50114,-0.0686 -3.0129,-0.13118 -4.5211,-0.1822 l -9.60733,-6.40561 c -0.97132,-0.64857 -2.69147,-1.04355 -4.54227,-1.04355 -1.85082,0 -3.57097,0.39498 -4.53878,1.04355 l -9.60731,6.40561 c -1.51173,0.0511 -3.02349,0.1137 -4.52464,0.1822 l -12.44359,-5.50782 c -1.26096,-0.55675 -3.13298,-0.80599 -4.94496,-0.65878 -1.81903,0.15013 -3.31664,0.67481 -3.963,1.3919 l -6.37546,7.0367 c -7.21553,1.21939 -13.30306,-2.09507 -19.17579,-3.839 -1.50115,-0.44745 -3.45795,-0.54218 -5.16746,-0.24777 -1.70603,0.29149 -2.93166,0.92987 -3.22837,1.68193 l -2.93162,7.42002 c -1.35633,0.29004 -2.69854,0.58882 -4.03722,0.89343 l -16.57968,-3.119 c -1.68482,-0.31773 -3.64867,-0.25214 -5.18161,0.17345 -1.54,0.42266 -2.44068,1.14703 -2.37002,1.90929 l 0.63575,7.52933 c -1.17971,0.38915 -2.34883,0.78704 -3.50384,1.18931 l -17.77003,-1.72857 c -1.80488,-0.17344 -3.69811,0.0481 -5.00499,0.58736 -1.31394,0.54072 -1.84729,1.32047 -1.42343,2.06524 l 4.18554,7.33404 c -0.97132,0.47513 -1.93205,0.9561 -2.87513,1.4429 l -18.24685,-0.26235 c -1.84021,-0.0219 -3.59921,0.34251 -4.62705,0.97797 -1.03138,0.63254 -1.18681,1.44291 -0.42032,2.13957 l 7.5587,6.84287 c -0.73468,0.54947 -1.4623,1.10331 -2.16519,1.66589 l -17.97842,1.20679 c -1.82608,0.12244 -3.3661,0.62672 -4.07603,1.33213 -0.70642,0.70688 -0.47684,1.51288 0.60045,2.1323 l 10.63518,6.09517 c -0.46273,0.60194 -0.9113,1.20679 -1.33514,1.81602 l -17.05302,2.63075 c -1.73072,0.26672 -3.00581,0.88468 -3.36609,1.63528 -0.36025,0.74915 0.24362,1.52016 1.59652,2.04194 l 13.34076,5.13323 c -0.16614,0.61943 -0.31437,1.24324 -0.44151,1.86557 l -15.52008,3.96435 c -1.57178,0.4008 -2.52898,1.10914 -2.52898,1.87432 0,0.76517 0.9572,1.4735 2.52898,1.87286 l 15.52008,3.96433 c 0.12714,0.6238 0.2755,1.24614 0.44151,1.86558 l -13.34076,5.13469 c -1.35279,0.52032 -1.95677,1.29278 -1.59652,2.04047 0.36028,0.7506 1.63537,1.36711 3.36609,1.63529 l 17.05302,2.63075 c 0.42384,0.60922 0.87241,1.21407 1.33514,1.81602 l -10.63518,6.09662 c -1.08083,0.62089 -1.31041,1.42688 -0.60045,2.13084 0.70993,0.70688 2.25347,1.21116 4.07956,1.33213 l 17.97489,1.2068 c 0.70289,0.56258 1.42343,1.11642 2.16519,1.66881 l -7.5587,6.83994 c -0.77,0.69522 -0.61106,1.50412 0.42032,2.13958 1.03138,0.63692 2.78684,1.00858 4.62705,0.97797 l 18.23978,-0.26381 c 0.95015,0.48972 1.90735,0.96923 2.8822,1.44583 l -4.18554,7.33548 c -0.42386,0.74331 0.10946,1.52015 1.42343,2.06087 1.30336,0.54364 3.20011,0.76081 5.00499,0.58591 l 17.77003,-1.72711 c 1.15501,0.40518 2.32413,0.7987 3.50384,1.18639 l -0.63575,7.53078 c -0.0707,0.76227 0.83002,1.48517 2.37002,1.91076 1.53294,0.42412 3.49679,0.48825 5.18161,0.17052 l 16.57968,-3.11755 c 1.33514,0.30607 2.67734,0.60341 4.03722,0.89345 l 2.93162,7.41564 c 0.29671,0.75497 1.51883,1.39335 3.22837,1.68338 1.706,0.29296 3.66631,0.19823 5.16746,-0.24631 l 14.77125,-4.39137 c 1.45876,0.19093 2.92458,0.37748 4.401,0.55237 l 6.37545,7.0338 c 0.64638,0.71416 2.14399,1.24322 3.96304,1.38897 1.81549,0.15157 3.68397,-0.0991 4.94492,-0.65878 l 12.44364,-5.5049 c 1.50112,0.0715 3.01288,0.13118 4.5246,0.18656 l 9.60735,6.40416 c 0.96778,0.64566 2.68792,1.04356 4.53875,1.04356 1.85082,0 3.57094,-0.39644 4.54228,-1.04356 l 9.60732,-6.40416 c 1.51173,-0.0554 3.01995,-0.11514 4.5211,-0.18656 l 12.44006,5.5049 c 1.26096,0.55967 3.13298,0.81035 4.94496,0.65878 1.81903,-0.14721 3.31664,-0.67481 3.96303,-1.38897 l 6.37543,-7.0338 c 1.47643,-0.17489 2.94224,-0.36144 4.401,-0.55237 l 14.77481,4.39137 c 1.50113,0.44454 3.45792,0.53927 5.16393,0.24631 1.70954,-0.29003 2.93165,-0.92986 3.22834,-1.68338 l 2.93166,-7.41564 c 1.35632,-0.29004 2.69851,-0.59174 4.03718,-0.89345 l 16.57971,3.11755 c 1.68482,0.31773 3.64513,0.2536 5.18159,-0.17052 1.54001,-0.42559 2.43715,-1.14704 2.37005,-1.91076 l -0.63578,-7.53078 c 1.17972,-0.38915 2.34885,-0.78121 3.50033,-1.18639 l 17.76999,1.72711 c 1.80492,0.1749 3.69812,-0.0423 5.00149,-0.58591 1.31392,-0.54072 1.84728,-1.31756 1.42343,-2.06087 l -4.18554,-7.33548 c 0.97485,-0.4766 1.93558,-0.95611 2.87513,-1.44583 l 18.24684,0.26381 c 1.84022,0.0306 3.59922,-0.34105 4.62706,-0.97797 1.03137,-0.63546 1.19032,-1.44436 0.41678,-2.13958 l -7.55517,-6.83994 c 0.73823,-0.55239 1.4623,-1.10623 2.16166,-1.66881 l 17.97842,-1.2068 c 1.82961,-0.12097 3.36963,-0.62525 4.07603,-1.33213 0.70642,-0.70396 0.48392,-1.50995 -0.60045,-2.13084 l -10.63515,-6.09662 c 0.45915,-0.60195 0.90774,-1.2068 1.33513,-1.81602 l 17.04946,-2.63075 c 1.73426,-0.26818 3.01288,-0.88469 3.36609,-1.63529 0.36733,-0.74915 -0.24024,-1.52015 -1.59652,-2.04047 l -13.33722,-5.13469 c 0.1625,-0.61944 0.31083,-1.24323 0.4415,-1.86558 l 15.52008,-3.96433 c 1.57179,-0.39936 2.52899,-1.10916 2.52899,-1.87286 0,-0.76372 -0.95366,-1.47352 -2.52545,-1.87432 z"
       id="path4187"
       inkscape:connector-curvature="0" />
    <ellipse
       ry="50.1357"
       rx="140.32312"
       cy="301.64124"
       cx="352.17291"
       id="ellipse4352"
       style="opacity:1;fill:#a94300;fill-opacity:0.39880952;stroke:none;stroke-width:4.42439985;stroke-linecap:round;stroke-linejoin:round;stroke-miterlimit:10;stroke-dasharray:none;stroke-dashoffset:0;stroke-opacity:1" />
    <path
       style="opacity:1;fill:#0b0400;fill-opacity:0.39880952;stroke:none;stroke-width:4.42439985;stroke-linecap:round;stroke-linejoin:round;stroke-miterlimit:10;stroke-dasharray:none;stroke-dashoffset:0;stroke-opacity:1;filter:url(#filter4555)"
       d="m 516.44169,347.77852 c 0,6.60222 -43.92211,29.69063 -50.0488,35.4917 -20.27289,19.19543 -70.81254,32.79538 -129.95081,32.79538 -77.01052,0 -139.43988,-23.06217 -139.43988,-51.51079 0,-3.25175 59.90957,-33.20216 61.4694,-36.28676 12.08668,-23.90172 58.82978,-36.517 127.03781,-36.517 77.01053,0 130.93228,27.57884 130.93228,56.02747 z"
       id="ellipse4464"
       inkscape:connector-curvature="0"
       sodipodi:nodetypes="sssssss"
       transform="matrix(1.0520633,0,0,1.1217984,-4.442332,-114.96479)" />
    <path
       style="opacity:1;fill:#f5a252;fill-opacity:1;stroke:#000000;stroke-width:0.54318571;stroke-linecap:round;stroke-linejoin:round;stroke-miterlimit:10;stroke-dasharray:none;stroke-dashoffset:0;stroke-opacity:1"
       d="m 309.14273,348.52359 c -62.85487,-6.96698 -105.6042,-28.61566 -104.66018,-53.00093 0.94403,-24.38527 45.35148,-45.56745 108.71962,-51.85884 63.36814,-6.29138 130.26195,3.84048 163.7714,24.80511 13.74429,8.59888 20.49911,18.16109 20.57047,27.67044 0.10255,13.67507 -13.61637,27.24081 -40.24696,37.67501 L 351.00477,296.3069 Z"
       id="path4164"
       inkscape:connector-curvature="0" />
    <path
       style="fill:#552200;fill-rule:evenodd;stroke:#000000;stroke-width:1.08637142px;stroke-linecap:butt;stroke-linejoin:miter;stroke-opacity:1"
       d="m 351.04568,157.32367 0,139.94866 -41.44703,50.99343 0,-139.38206 z"
       id="path4145"
       inkscape:connector-curvature="0" />
    <path
       inkscape:connector-curvature="0"
       id="path4147"
       d="m 351.04568,157.32367 0,139.94866 105.74307,36.82858 0,-139.38206 z"
       style="fill:#803300;fill-rule:evenodd;stroke:#000000;stroke-width:1.08637142px;stroke-linecap:butt;stroke-linejoin:miter;stroke-opacity:1"
       sodipodi:nodetypes="ccccc" />
    <path
       id="path4155"
       style="opacity:1;fill:url(#linearGradient4174);fill-opacity:1;stroke:#000000;stroke-width:0.54318571;stroke-linecap:round;stroke-linejoin:round;stroke-miterlimit:10;stroke-dasharray:none;stroke-dashoffset:0;stroke-opacity:1"
       d="m 204.48255,296.64775 c -0.94402,24.38527 41.80531,46.03396 104.66018,53.00093 l 0,-140.51526 c -62.85487,-6.96697 -105.6042,-28.61566 -104.66018,-53.00093 z"
       inkscape:connector-curvature="0"
       sodipodi:nodetypes="ccccc" />
    <path
       sodipodi:nodetypes="cccc"
       inkscape:connector-curvature="0"
       d="m 497.60542,296.54784 c 0.10255,13.67509 -13.61638,27.24082 -40.24697,37.67503 m 40.24697,-37.67503 3.6e-4,-139.33044 c 0.0622,13.65484 -13.6555,27.19627 -40.24733,37.61529 l 0,139.39018"
       style="opacity:1;fill:url(#linearGradient4190);fill-opacity:1;stroke:#000000;stroke-width:0.54318571;stroke-linecap:round;stroke-linejoin:round;stroke-miterlimit:10;stroke-dasharray:none;stroke-dashoffset:0;stroke-opacity:1"
       id="path4160" />
    <path
       style="opacity:1;fill:#aa4400;fill-opacity:1;stroke:#000000;stroke-width:0.54318571;stroke-linecap:round;stroke-linejoin:round;stroke-miterlimit:10;stroke-dasharray:none;stroke-dashoffset:0;stroke-opacity:1"
       d="m 309.14273,212.01195 c -62.85487,-6.96698 -105.6042,-28.61566 -104.66018,-53.00093 0.94403,-24.38528 45.35148,-45.56745 108.71962,-51.85884 63.36814,-6.29138 130.26195,3.84047 163.7714,24.80509 33.50946,20.96464 25.47244,47.65554 -19.67649,65.34546 L 351.00477,159.79526 Z"
       id="path4138"
       inkscape:connector-curvature="0" />
    <path
       style="opacity:1;fill:none;fill-opacity:1;stroke:url(#linearGradient4323);stroke-width:5.10594559;stroke-linecap:round;stroke-linejoin:round;stroke-miterlimit:10;stroke-dasharray:none;stroke-dashoffset:0;stroke-opacity:1"
       d="M 458.35982,267.53758 352.06751,230.03011"
       id="path4299"
       inkscape:connector-curvature="0" />
    <path
       style="opacity:1;fill:none;fill-opacity:1;stroke:url(#linearGradient4325);stroke-width:5.10594559;stroke-linecap:round;stroke-linejoin:round;stroke-miterlimit:10;stroke-dasharray:none;stroke-dashoffset:0;stroke-opacity:1"
       d="m 498.60668,229.84915 c 0.11169,13.67962 -13.60757,27.25081 -40.24686,37.68843"
       id="path4301"
       inkscape:connector-curvature="0" />
    <path
       style="opacity:1;fill:none;fill-opacity:1;stroke:url(#linearGradient4212);stroke-width:5.10594559;stroke-linecap:round;stroke-linejoin:round;stroke-miterlimit:10;stroke-dasharray:none;stroke-dashoffset:0;stroke-opacity:1"
       d="m 352.06751,230.03011 -41.86204,52.21668"
       id="path4297"
       inkscape:connector-curvature="0" />
    <path
       style="opacity:1;fill:none;fill-opacity:1;stroke:url(#linearGradient4321);stroke-width:5.10594559;stroke-linecap:round;stroke-linejoin:round;stroke-miterlimit:10;stroke-dasharray:none;stroke-dashoffset:0;stroke-opacity:1"
       d="M 310.20547,282.24679 C 247.3506,275.27982 203.40569,253.63114 204.34971,229.24587"
       id="path4204"
       inkscape:connector-curvature="0"
       sodipodi:nodetypes="cc" />
    <path
       style="fill:none;fill-rule:evenodd;stroke:none;stroke-width:1px;stroke-linecap:butt;stroke-linejoin:miter;stroke-opacity:1"
       d="m 267.44012,201.54709 c 31.91095,-45.55243 140.09457,-60.36439 193.2291,-27.24367"
       id="path4282"
       inkscape:connector-curvature="0"
       sodipodi:nodetypes="cc" />
    <g
       transform="translate(0.09958209,-0.19985838)"
       style="font-style:normal;font-variant:normal;font-weight:bold;font-stretch:normal;font-size:40px;line-height:125%;font-family:Futura;-inkscape-font-specification:'Futura, Bold';text-align:start;letter-spacing:0px;word-spacing:0px;writing-mode:lr-tb;text-anchor:start;fill:#080808;fill-opacity:1;stroke:none;stroke-width:1px;stroke-linecap:butt;stroke-linejoin:miter;stroke-opacity:1;filter:url(#filter4460)"
       id="text4358">
      <path
         d="m 264.90198,133.18903 2.61107,-4.19726 q 1.60267,3.22795 2.44513,5.41705 l 1.30511,3.38102 0.48606,1.22619 q 4.59527,0.1775 8.6817,1.15516 4.08642,0.97766 7.76679,2.68522 3.68037,1.70757 6.42297,3.95544 2.77687,2.22446 4.65023,4.96581 2.43537,3.56375 3.20478,7.41139 0.76941,3.84765 -0.10717,7.71419 -0.8423,3.84312 -3.25464,7.30134 -2.37808,3.43481 -6.0789,5.96385 -5.72256,3.91064 -13.99696,6.14681 l -1.06742,0.27702 q -1.55223,3.17207 -3.44831,5.47318 -1.89607,2.30111 -4.36328,3.98714 -2.57002,1.75627 -4.85965,1.86314 -2.23196,0.11771 -3.30914,-1.45857 -0.84301,-1.23361 -0.56091,-2.73339 0.22441,-1.51063 1.44943,-3.10181 1.22502,-1.59119 3.3153,-3.01963 2.94695,-2.01386 10.76728,-4.69378 l 0.95206,-0.29873 q 0.74123,-3.62323 0.19795,-8.83187 -0.80149,-7.6462 -5.10297,-20.34047 -2.08763,-6.36513 -3.95818,-10.86783 -3.83625,-0.24377 -8.03172,0.31091 -4.19546,0.55467 -7.85406,1.74785 -3.65859,1.19317 -6.05727,2.83236 -2.84415,1.94362 -3.64423,4.45087 -0.78923,2.44958 0.73288,4.67692 0.9601,1.40495 2.80028,2.25873 1.85104,0.7961 4.29374,0.98679 2.44271,0.19069 5.53305,-0.36281 l -0.69611,3.54213 q -4.09266,0.48442 -7.46861,-0.77767 -3.34169,-1.28552 -5.19163,-3.9926 -1.54553,-2.26161 -1.51704,-4.79455 0.005,-2.5672 1.50821,-5.00195 1.50314,-2.43474 4.21022,-4.28469 6.95617,-4.75365 19.83216,-5.2583 -1.06009,-3.09603 -2.5982,-5.7146 z m 14.71004,48.96384 1.13596,-0.32386 q 5.17321,-1.62499 8.32349,-2.97349 3.15029,-1.34851 5.68604,-3.08137 3.56375,-2.43537 5.27132,-6.11574 1.74183,-3.70379 1.33679,-7.90098 -0.37077,-4.2206 -2.85297,-7.85289 -6.4631,-9.45765 -25.3628,-11.22078 0.67511,1.64996 2.33265,6.65011 2.54285,7.91401 3.45448,12.11689 2.80341,12.56181 0.67504,20.70211 z m -3.17932,4.83694 q -7.4217,2.30697 -10.98546,4.74234 -1.50774,1.03034 -2.01315,2.12977 -0.49457,1.04175 0.11427,1.93269 0.65568,0.95947 2.46043,0.73154 1.80474,-0.22793 3.79222,-1.58611 4.00922,-2.73979 6.63169,-7.95023 z"
         style="font-style:normal;font-variant:normal;font-weight:normal;font-stretch:normal;font-size:85px;line-height:125%;font-family:'Savoye LET';-inkscape-font-specification:'Savoye LET, Normal';text-align:start;writing-mode:lr-tb;text-anchor:start;fill:#080808;fill-opacity:1"
         id="path4197" />
      <path
         d="m 329.56938,157.14405 0.89458,0.38135 q -1.48554,3.99967 -3.38906,6.17478 -1.91545,2.13536 -4.61844,2.94718 -3.21973,0.96701 -5.81215,-0.5945 -2.59242,-1.5615 -3.65494,-5.09924 -1.07446,-3.57748 -0.30455,-7.79557 0.79771,-4.26978 2.90364,-7.50239 2.13374,-3.28431 4.91623,-4.12 1.62974,-0.48948 2.94976,0.15412 1.35977,0.63166 1.81343,2.14215 0.91926,3.06073 -1.50046,7.1243 -2.41973,4.06356 -7.53878,7.94113 0.0558,0.32993 0.17515,0.72743 0.82375,2.74274 2.85953,4.03807 2.02385,1.25558 4.40884,0.53928 1.86824,-0.56111 3.27102,-2.23915 1.39083,-1.71778 2.6262,-4.81894 z m -13.62726,0.79931 q 3.71994,-3.19734 5.32106,-6.23501 1.0727,-2.05559 1.47753,-4.17061 0.40483,-2.11501 -0.0369,-3.58575 -0.5611,-1.86824 -2.27034,-1.35489 -2.58374,0.776 -4.01732,5.6701 -1.40577,4.84242 -0.47403,9.67616 z"
         style="font-style:normal;font-variant:normal;font-weight:normal;font-stretch:normal;font-size:85px;line-height:125%;font-family:'Savoye LET';-inkscape-font-specification:'Savoye LET, Normal';text-align:start;writing-mode:lr-tb;text-anchor:start;fill:#080808;fill-opacity:1"
         id="path4199" />
      <path
         d="m 332.1401,160.07422 1.75655,-3.1337 q 2.61908,3.88674 6.52969,3.12362 2.03678,-0.39746 3.20815,-1.97922 1.20416,-1.63045 0.86234,-3.38207 -0.24642,-1.26281 -1.11381,-2.02385 -0.86739,-0.76105 -3.88782,-2.37055 -2.78495,-1.48631 -3.85503,-2.41923 -1.03729,-0.98161 -1.32346,-2.44809 -0.37361,-1.91457 0.40829,-3.75862 0.82262,-1.852 2.50568,-3.19532 1.67511,-1.38405 3.75262,-1.78946 1.8331,-0.35771 3.238,0.34073 1.43768,0.64976 1.7159,2.07551 0.36566,1.87383 -1.08789,2.87635 -0.61802,-1.86687 -2.04677,-2.68752 -1.39596,-0.86934 -3.26979,-0.50367 -1.67016,0.32591 -2.71833,1.6722 -1.01539,1.2976 -0.74512,2.6826 0.33387,1.7109 2.77803,2.9677 l 2.73627,1.45352 q 3.99512,2.0536 4.55156,4.90509 0.41336,2.11825 -0.44305,4.23056 -0.82362,2.06362 -2.6865,3.56889 -1.82215,1.49732 -4.10334,1.94247 -3.62547,0.70748 -6.76217,-2.14794 z"
         style="font-style:normal;font-variant:normal;font-weight:normal;font-stretch:normal;font-size:85px;line-height:125%;font-family:'Savoye LET';-inkscape-font-specification:'Savoye LET, Normal';text-align:start;writing-mode:lr-tb;text-anchor:start;fill:#080808;fill-opacity:1"
         id="path4201" />
      <path
         d="m 350.09355,156.29459 2.01672,-2.97294 q 2.279,4.09541 6.24035,3.66768 2.0632,-0.22278 3.36486,-1.69917 1.33848,-1.52211 1.14689,-3.29647 -0.13812,-1.27918 -0.93763,-2.11125 -0.79952,-0.83206 -3.6721,-2.69264 -2.64845,-1.7178 -3.63529,-2.73836 -0.95004,-1.06628 -1.11044,-2.55179 -0.20941,-1.93941 0.7265,-3.71027 0.97717,-1.77532 2.76838,-2.97061 1.78676,-1.23656 3.89122,-1.46379 1.85689,-0.2005 3.19729,0.61491 1.3772,0.76968 1.53315,2.21392 0.20495,1.89815 -1.3286,2.77341 -0.457,-1.91268 -1.81076,-2.85188 -1.31696,-0.98492 -3.21511,-0.77996 -1.69182,0.18267 -2.85071,1.43493 -1.12207,1.20653 -0.97059,2.60951 0.18714,1.73309 2.51555,3.19322 l 2.60272,1.68099 q 3.80597,2.38597 4.11786,5.27446 0.23169,2.14573 -0.80128,4.17754 -0.99616,1.98609 -2.98032,3.32746 -1.94291,1.3369 -4.25369,1.58641 -3.67251,0.39655 -6.55497,-2.71531 z"
         style="font-style:normal;font-variant:normal;font-weight:normal;font-stretch:normal;font-size:85px;line-height:125%;font-family:'Savoye LET';-inkscape-font-specification:'Savoye LET, Normal';text-align:start;writing-mode:lr-tb;text-anchor:start;fill:#080808;fill-opacity:1"
         id="path4203" />
      <path
         d="m 387.50434,149.8587 0.75769,0.60959 q -2.51418,3.44718 -4.93607,5.02481 -2.4226,1.53614 -5.24445,1.5848 -3.36131,0.058 -5.43335,-2.14785 -2.07203,-2.20581 -2.13572,-5.89911 -0.0644,-3.73479 1.82016,-7.58622 1.92534,-3.89364 4.82874,-6.43431 2.94419,-2.58288 5.84903,-2.63298 1.70141,-0.0293 2.79752,0.948 1.13761,0.97663 1.16481,2.55354 0.0551,3.19533 -3.37561,6.45076 -3.43071,3.25544 -9.40924,5.60008 -0.0358,0.3327 -0.0286,0.74768 0.0494,2.86334 1.65777,4.66205 1.60769,1.75721 4.09755,1.71427 1.9504,-0.0336 3.75554,-1.26855 1.80444,-1.27642 3.83424,-3.92656 z m -13.33366,-2.92484 q 4.4474,-2.06917 6.81205,-4.55904 1.58979,-1.68782 2.55282,-3.61389 0.96303,-1.92607 0.93655,-3.46149 -0.0336,-1.95039 -1.81804,-1.91962 -2.69735,0.0465 -5.40399,4.36873 -2.66586,4.27999 -3.07939,9.18531 z"
         style="font-style:normal;font-variant:normal;font-weight:normal;font-stretch:normal;font-size:85px;line-height:125%;font-family:'Savoye LET';-inkscape-font-specification:'Savoye LET, Normal';text-align:start;writing-mode:lr-tb;text-anchor:start;fill:#080808;fill-opacity:1"
         id="path4205" />
      <path
         d="m 392.18486,144.39904 q 3.90255,-4.01767 5.40053,-7.64501 -3.20198,-2.1301 -2.92365,-5.6053 0.13254,-1.65486 1.00143,-2.62619 0.8689,-0.97133 2.06867,-0.87524 1.24114,0.0994 1.93442,1.32076 0.6966,1.17999 0.5508,3.00033 -0.10271,1.28251 -0.68371,2.81818 1.09383,0.37906 2.004,0.45196 2.56503,0.20543 4.33918,-1.1514 l 1.98582,0.15905 -0.33598,0.556 q -3.41612,5.22246 -5.7847,10.36227 -2.3239,5.10175 -2.53265,7.70815 -0.0762,0.95155 0.36723,1.65325 0.44676,0.66033 1.15007,0.71666 1.69623,0.13586 5.7493,-3.16193 l 0.6023,0.7977 q -1.26111,1.18973 -3.85445,2.89733 -2.33185,1.56198 -4.23493,1.40956 -1.61349,-0.12922 -2.47888,-1.28109 -0.82402,-1.14855 -0.67492,-3.01027 0.24851,-3.10285 3.0291,-7.66839 1.01128,-1.70939 2.55878,-3.87547 1.5475,-2.16608 3.86789,-5.14464 l 0.4601,-0.54607 q -1.46466,1.1318 -2.79025,1.56691 -1.2809,0.39706 -2.89439,0.26783 -0.74468,-0.0596 -1.55554,-0.33277 -1.64861,3.94837 -5.63389,7.95942 l -0.69168,-0.72159 z m 6.50951,-10.0544 q 0.24832,-1.02103 0.30465,-1.72434 0.11597,-1.448 -0.31422,-2.31519 -0.38881,-0.86388 -1.1335,-0.92352 -0.41371,-0.0331 -0.77782,0.35407 -0.31942,0.34915 -0.36581,0.92835 -0.15573,1.94446 2.2867,3.68063 z"
         style="font-style:normal;font-variant:normal;font-weight:normal;font-stretch:normal;font-size:85px;line-height:125%;font-family:'Savoye LET';-inkscape-font-specification:'Savoye LET, Normal';text-align:start;writing-mode:lr-tb;text-anchor:start;fill:#080808;fill-opacity:1"
         id="path4207" />
      <path
         d="m 421.31358,137.11963 -5.52156,13.05666 q -0.88939,2.16051 -1.05625,3.10041 -0.26117,1.47114 0.27393,2.49349 0.5351,1.02236 1.67932,1.2255 1.10335,0.19587 2.1112,-0.2575 1.05597,-0.48697 3.29124,-2.15564 l 0.57743,-0.40332 0.50416,0.72179 q -2.93338,2.51425 -4.78562,3.45001 -1.80412,0.90215 -3.35698,0.62647 -1.96152,-0.34823 -2.92171,-1.82543 -0.91206,-1.51081 -0.54207,-3.59492 0.27568,-1.55287 1.411,-4.38633 l 4.98499,-12.64608 -3.92303,-0.69646 0.53271,-1.33862 3.92303,0.69645 4.24722,-10.62726 4.19872,-0.85642 -5.09501,12.07857 6.62012,1.17527 -0.53272,1.33863 -6.62012,-1.17527 z"
         style="font-style:normal;font-variant:normal;font-weight:normal;font-stretch:normal;font-size:85px;line-height:125%;font-family:'Savoye LET';-inkscape-font-specification:'Savoye LET, Normal';text-align:start;writing-mode:lr-tb;text-anchor:start;fill:#080808;fill-opacity:1"
         id="path4209" />
    </g>
    <g
       transform="translate(-0.50507627,-0.50507627)"
       style="font-style:normal;font-variant:normal;font-weight:bold;font-stretch:normal;font-size:40px;line-height:125%;font-family:Futura;-inkscape-font-specification:'Futura, Bold';text-align:start;letter-spacing:0px;word-spacing:0px;writing-mode:lr-tb;text-anchor:start;fill:#000000;fill-opacity:1;stroke:none;stroke-width:1px;stroke-linecap:butt;stroke-linejoin:miter;stroke-opacity:1"
       id="text4284">
      <path
         d="m 264.90198,133.18903 2.61107,-4.19726 q 1.60267,3.22795 2.44513,5.41705 l 1.30511,3.38102 0.48606,1.22619 q 4.59527,0.1775 8.6817,1.15516 4.08642,0.97766 7.76679,2.68522 3.68037,1.70757 6.42297,3.95544 2.77687,2.22446 4.65023,4.96581 2.43537,3.56375 3.20478,7.41139 0.76941,3.84765 -0.10717,7.71419 -0.8423,3.84312 -3.25464,7.30134 -2.37808,3.43481 -6.0789,5.96385 -5.72256,3.91064 -13.99696,6.14681 l -1.06742,0.27702 q -1.55223,3.17207 -3.44831,5.47318 -1.89607,2.30111 -4.36328,3.98714 -2.57002,1.75627 -4.85965,1.86314 -2.23196,0.11771 -3.30914,-1.45857 -0.84301,-1.23361 -0.56091,-2.73339 0.22441,-1.51063 1.44943,-3.10181 1.22502,-1.59119 3.3153,-3.01963 2.94695,-2.01386 10.76728,-4.69378 l 0.95206,-0.29873 q 0.74123,-3.62323 0.19795,-8.83187 -0.80149,-7.6462 -5.10297,-20.34047 -2.08763,-6.36513 -3.95818,-10.86783 -3.83625,-0.24377 -8.03172,0.31091 -4.19546,0.55467 -7.85406,1.74785 -3.65859,1.19317 -6.05727,2.83236 -2.84415,1.94362 -3.64423,4.45087 -0.78923,2.44958 0.73288,4.67692 0.9601,1.40495 2.80028,2.25873 1.85104,0.7961 4.29374,0.98679 2.44271,0.19069 5.53305,-0.36281 l -0.69611,3.54213 q -4.09266,0.48442 -7.46861,-0.77767 -3.34169,-1.28552 -5.19163,-3.9926 -1.54553,-2.26161 -1.51704,-4.79455 0.005,-2.5672 1.50821,-5.00195 1.50314,-2.43474 4.21022,-4.28469 6.95617,-4.75365 19.83216,-5.2583 -1.06009,-3.09603 -2.5982,-5.7146 z m 14.71004,48.96384 1.13596,-0.32386 q 5.17321,-1.62499 8.32349,-2.97349 3.15029,-1.34851 5.68604,-3.08137 3.56375,-2.43537 5.27132,-6.11574 1.74183,-3.70379 1.33679,-7.90098 -0.37077,-4.2206 -2.85297,-7.85289 -6.4631,-9.45765 -25.3628,-11.22078 0.67511,1.64996 2.33265,6.65011 2.54285,7.91401 3.45448,12.11689 2.80341,12.56181 0.67504,20.70211 z m -3.17932,4.83694 q -7.4217,2.30697 -10.98546,4.74234 -1.50774,1.03034 -2.01315,2.12977 -0.49457,1.04175 0.11427,1.93269 0.65568,0.95947 2.46043,0.73154 1.80474,-0.22793 3.79222,-1.58611 4.00922,-2.73979 6.63169,-7.95023 z"
         style="font-style:normal;font-variant:normal;font-weight:normal;font-stretch:normal;font-size:85px;line-height:125%;font-family:'Savoye LET';-inkscape-font-specification:'Savoye LET, Normal';text-align:start;writing-mode:lr-tb;text-anchor:start;fill:#ffffff"
         id="path4182" />
      <path
         d="m 329.56938,157.14405 0.89458,0.38135 q -1.48554,3.99967 -3.38906,6.17478 -1.91545,2.13536 -4.61844,2.94718 -3.21973,0.96701 -5.81215,-0.5945 -2.59242,-1.5615 -3.65494,-5.09924 -1.07446,-3.57748 -0.30455,-7.79557 0.79771,-4.26978 2.90364,-7.50239 2.13374,-3.28431 4.91623,-4.12 1.62974,-0.48948 2.94976,0.15412 1.35977,0.63166 1.81343,2.14215 0.91926,3.06073 -1.50046,7.1243 -2.41973,4.06356 -7.53878,7.94113 0.0558,0.32993 0.17515,0.72743 0.82375,2.74274 2.85953,4.03807 2.02385,1.25558 4.40884,0.53928 1.86824,-0.56111 3.27102,-2.23915 1.39083,-1.71778 2.6262,-4.81894 z m -13.62726,0.79931 q 3.71994,-3.19734 5.32106,-6.23501 1.0727,-2.05559 1.47753,-4.17061 0.40483,-2.11501 -0.0369,-3.58575 -0.5611,-1.86824 -2.27034,-1.35489 -2.58374,0.776 -4.01732,5.6701 -1.40577,4.84242 -0.47403,9.67616 z"
         style="font-style:normal;font-variant:normal;font-weight:normal;font-stretch:normal;font-size:85px;line-height:125%;font-family:'Savoye LET';-inkscape-font-specification:'Savoye LET, Normal';text-align:start;writing-mode:lr-tb;text-anchor:start;fill:#ffffff"
         id="path4184" />
      <path
         d="m 332.1401,160.07422 1.75655,-3.1337 q 2.61908,3.88674 6.52969,3.12362 2.03678,-0.39746 3.20815,-1.97922 1.20416,-1.63045 0.86234,-3.38207 -0.24642,-1.26281 -1.11381,-2.02385 -0.86739,-0.76105 -3.88782,-2.37055 -2.78495,-1.48631 -3.85503,-2.41923 -1.03729,-0.98161 -1.32346,-2.44809 -0.37361,-1.91457 0.40829,-3.75862 0.82262,-1.852 2.50568,-3.19532 1.67511,-1.38405 3.75262,-1.78946 1.8331,-0.35771 3.238,0.34073 1.43768,0.64976 1.7159,2.07551 0.36566,1.87383 -1.08789,2.87635 -0.61802,-1.86687 -2.04677,-2.68752 -1.39596,-0.86934 -3.26979,-0.50367 -1.67016,0.32591 -2.71833,1.6722 -1.01539,1.2976 -0.74512,2.6826 0.33387,1.7109 2.77803,2.9677 l 2.73627,1.45352 q 3.99512,2.0536 4.55156,4.90509 0.41336,2.11825 -0.44305,4.23056 -0.82362,2.06362 -2.6865,3.56889 -1.82215,1.49732 -4.10334,1.94247 -3.62547,0.70748 -6.76217,-2.14794 z"
         style="font-style:normal;font-variant:normal;font-weight:normal;font-stretch:normal;font-size:85px;line-height:125%;font-family:'Savoye LET';-inkscape-font-specification:'Savoye LET, Normal';text-align:start;writing-mode:lr-tb;text-anchor:start;fill:#ffffff"
         id="path4186" />
      <path
         d="m 350.09355,156.29459 2.01672,-2.97294 q 2.279,4.09541 6.24035,3.66768 2.0632,-0.22278 3.36486,-1.69917 1.33848,-1.52211 1.14689,-3.29647 -0.13812,-1.27918 -0.93763,-2.11125 -0.79952,-0.83206 -3.6721,-2.69264 -2.64845,-1.7178 -3.63529,-2.73836 -0.95004,-1.06628 -1.11044,-2.55179 -0.20941,-1.93941 0.7265,-3.71027 0.97717,-1.77532 2.76838,-2.97061 1.78676,-1.23656 3.89122,-1.46379 1.85689,-0.2005 3.19729,0.61491 1.3772,0.76968 1.53315,2.21392 0.20495,1.89815 -1.3286,2.77341 -0.457,-1.91268 -1.81076,-2.85188 -1.31696,-0.98492 -3.21511,-0.77996 -1.69182,0.18267 -2.85071,1.43493 -1.12207,1.20653 -0.97059,2.60951 0.18714,1.73309 2.51555,3.19322 l 2.60272,1.68099 q 3.80597,2.38597 4.11786,5.27446 0.23169,2.14573 -0.80128,4.17754 -0.99616,1.98609 -2.98032,3.32746 -1.94291,1.3369 -4.25369,1.58641 -3.67251,0.39655 -6.55497,-2.71531 z"
         style="font-style:normal;font-variant:normal;font-weight:normal;font-stretch:normal;font-size:85px;line-height:125%;font-family:'Savoye LET';-inkscape-font-specification:'Savoye LET, Normal';text-align:start;writing-mode:lr-tb;text-anchor:start;fill:#ffffff"
         id="path4188" />
      <path
         d="m 387.50434,149.8587 0.75769,0.60959 q -2.51418,3.44718 -4.93607,5.02481 -2.4226,1.53614 -5.24445,1.5848 -3.36131,0.058 -5.43335,-2.14785 -2.07203,-2.20581 -2.13572,-5.89911 -0.0644,-3.73479 1.82016,-7.58622 1.92534,-3.89364 4.82874,-6.43431 2.94419,-2.58288 5.84903,-2.63298 1.70141,-0.0293 2.79752,0.948 1.13761,0.97663 1.16481,2.55354 0.0551,3.19533 -3.37561,6.45076 -3.43071,3.25544 -9.40924,5.60008 -0.0358,0.3327 -0.0286,0.74768 0.0494,2.86334 1.65777,4.66205 1.60769,1.75721 4.09755,1.71427 1.9504,-0.0336 3.75554,-1.26855 1.80444,-1.27642 3.83424,-3.92656 z m -13.33366,-2.92484 q 4.4474,-2.06917 6.81205,-4.55904 1.58979,-1.68782 2.55282,-3.61389 0.96303,-1.92607 0.93655,-3.46149 -0.0336,-1.95039 -1.81804,-1.91962 -2.69735,0.0465 -5.40399,4.36873 -2.66586,4.27999 -3.07939,9.18531 z"
         style="font-style:normal;font-variant:normal;font-weight:normal;font-stretch:normal;font-size:85px;line-height:125%;font-family:'Savoye LET';-inkscape-font-specification:'Savoye LET, Normal';text-align:start;writing-mode:lr-tb;text-anchor:start;fill:#ffffff"
         id="path4190" />
      <path
         d="m 392.18486,144.39904 q 3.90255,-4.01767 5.40053,-7.64501 -3.20198,-2.1301 -2.92365,-5.6053 0.13254,-1.65486 1.00143,-2.62619 0.8689,-0.97133 2.06867,-0.87524 1.24114,0.0994 1.93442,1.32076 0.6966,1.17999 0.5508,3.00033 -0.10271,1.28251 -0.68371,2.81818 1.09383,0.37906 2.004,0.45196 2.56503,0.20543 4.33918,-1.1514 l 1.98582,0.15905 -0.33598,0.556 q -3.41612,5.22246 -5.7847,10.36227 -2.3239,5.10175 -2.53265,7.70815 -0.0762,0.95155 0.36723,1.65325 0.44676,0.66033 1.15007,0.71666 1.69623,0.13586 5.7493,-3.16193 l 0.6023,0.7977 q -1.26111,1.18973 -3.85445,2.89733 -2.33185,1.56198 -4.23493,1.40956 -1.61349,-0.12922 -2.47888,-1.28109 -0.82402,-1.14855 -0.67492,-3.01027 0.24851,-3.10285 3.0291,-7.66839 1.01128,-1.70939 2.55878,-3.87547 1.5475,-2.16608 3.86789,-5.14464 l 0.4601,-0.54607 q -1.46466,1.1318 -2.79025,1.56691 -1.2809,0.39706 -2.89439,0.26783 -0.74468,-0.0596 -1.55554,-0.33277 -1.64861,3.94837 -5.63389,7.95942 l -0.69168,-0.72159 z m 6.50951,-10.0544 q 0.24832,-1.02103 0.30465,-1.72434 0.11597,-1.448 -0.31422,-2.31519 -0.38881,-0.86388 -1.1335,-0.92352 -0.41371,-0.0331 -0.77782,0.35407 -0.31942,0.34915 -0.36581,0.92835 -0.15573,1.94446 2.2867,3.68063 z"
         style="font-style:normal;font-variant:normal;font-weight:normal;font-stretch:normal;font-size:85px;line-height:125%;font-family:'Savoye LET';-inkscape-font-specification:'Savoye LET, Normal';text-align:start;writing-mode:lr-tb;text-anchor:start;fill:#ffffff"
         id="path4192" />
      <path
         d="m 421.31358,137.11963 -5.52156,13.05666 q -0.88939,2.16051 -1.05625,3.10041 -0.26117,1.47114 0.27393,2.49349 0.5351,1.02236 1.67932,1.2255 1.10335,0.19587 2.1112,-0.2575 1.05597,-0.48697 3.29124,-2.15564 l 0.57743,-0.40332 0.50416,0.72179 q -2.93338,2.51425 -4.78562,3.45001 -1.80412,0.90215 -3.35698,0.62647 -1.96152,-0.34823 -2.92171,-1.82543 -0.91206,-1.51081 -0.54207,-3.59492 0.27568,-1.55287 1.411,-4.38633 l 4.98499,-12.64608 -3.92303,-0.69646 0.53271,-1.33862 3.92303,0.69645 4.24722,-10.62726 4.19872,-0.85642 -5.09501,12.07857 6.62012,1.17527 -0.53272,1.33863 -6.62012,-1.17527 z"
         style="font-style:normal;font-variant:normal;font-weight:normal;font-stretch:normal;font-size:85px;line-height:125%;font-family:'Savoye LET';-inkscape-font-specification:'Savoye LET, Normal';text-align:start;writing-mode:lr-tb;text-anchor:start;fill:#ffffff"
         id="path4194" />
    </g>
    <path
       style="fill:#1d0b00;fill-opacity:0.26488097;fill-rule:evenodd;stroke:none;stroke-width:1px;stroke-linecap:butt;stroke-linejoin:miter;stroke-opacity:1;filter:url(#filter4599)"
       d="m 297.85714,414.14792 0,-123.21429 40,10.35715 49.28572,82.85714 z"
       id="path4356"
       inkscape:connector-curvature="0"
       sodipodi:nodetypes="ccccc"
       transform="matrix(1.0520633,0,0,1.1217984,-4.442332,-114.96479)" />
  </g>
</svg>
